<svg xmlns="http://www.w3.org/2000/svg" width="68.781" height="58" viewBox="0 0 68.781 58">
  <g id="heart" transform="translate(-0.553 -81.205)">
    <path id="Caminho_6312" data-name="Caminho 6312" d="M100.946,109.2V93.264a4.319,4.319,0,0,0-4.307-4.307H65.486l-2.441-5.312a4.323,4.323,0,0,0-3.876-2.441H48.258a4.319,4.319,0,0,0-4.307,4.307V109.2h57Z" transform="translate(-37.557)" fill="#cbcfd2"/>
    <path id="Caminho_6315" data-name="Caminho 6315" d="M.652,248.364,5.82,276.072a4.289,4.289,0,0,0,4.163,3.446h49.96a4.289,4.289,0,0,0,4.163-3.446l5.168-27.708a4.319,4.319,0,0,0-4.163-5.025H4.815A4.172,4.172,0,0,0,.652,248.364Z" transform="translate(0 -140.312)" fill="#f4f7f8"/>
  </g>
</svg>
